<svg width="69" height="86" viewBox="0 0 69 86" fill="none" xmlns="http://www.w3.org/2000/svg">
<path d="M34.292 85.2C29.812 85.2 25.572 84.64 21.572 83.52C17.572 82.4 14.012 80.72 10.892 78.48C7.77203 76.16 5.29203 73.32 3.45203 69.96C1.69203 66.6 0.732031 62.68 0.572031 58.2C0.572031 57.48 0.812031 56.88 1.29203 56.4C1.77203 55.84 2.41203 55.56 3.21203 55.56H16.892C17.932 55.56 18.732 55.84 19.292 56.4C19.932 56.96 20.412 57.76 20.732 58.8C21.132 61.36 21.972 63.44 23.252 65.04C24.532 66.64 26.132 67.84 28.052 68.64C30.052 69.36 32.292 69.72 34.772 69.72C39.332 69.72 42.812 68.24 45.212 65.28C47.692 62.32 48.932 58.12 48.932 52.68V15.96H8.97203C8.17203 15.96 7.49203 15.68 6.93203 15.12C6.37203 14.56 6.09203 13.88 6.09203 13.08V3C6.09203 2.12 6.37203 1.4 6.93203 0.839998C7.49203 0.279995 8.17203 -5.72205e-06 8.97203 -5.72205e-06H65.492C66.372 -5.72205e-06 67.092 0.279995 67.652 0.839998C68.212 1.4 68.492 2.12 68.492 3V53.16C68.492 60.04 67.052 65.88 64.172 70.68C61.292 75.4 57.292 79 52.172 81.48C47.052 83.96 41.092 85.2 34.292 85.2Z" fill="#FFA800"/>
</svg>
